<svg width="190" height="191" viewBox="0 0 190 191" fill="none" xmlns="http://www.w3.org/2000/svg">
<path d="M155.829 24.0913C156.327 24.0513 156.824 24.0231 157.322 24.0068C167.704 23.7049 165.267 33.5703 165.577 39.5261C165.783 43.5329 168.042 47.3521 167.999 52.1536C167.863 59.3777 164.769 66.2536 159.393 71.2675C152.378 77.9083 145.039 79.1376 135.789 78.9885L135.428 78.4152C141.302 72.3485 145.072 66.0932 142.4 57.1411C140.691 51.4103 136.306 48.2958 131 45.7028C136.39 35.9838 139.766 37.4022 147.889 31.3146C150.96 29.0133 150.857 26.8826 155.829 24.0913Z" fill="#FE9A00"/>
<path d="M121.857 50.1401C127.838 49.4556 133.936 51.2015 136.727 57.0963C138.238 60.3683 138.411 64.115 137.208 67.5162C134.685 74.5874 127.566 77.7936 121.385 80.703C101.991 89.9245 108.24 69.0648 112.206 59.0492C114.052 54.3741 117.369 51.7996 121.857 50.1401Z" fill="#FE9A00"/>
<path d="M130.678 24L131.945 24.1255C133.557 25.0577 134.2 26.281 133.946 28.0102C132.895 35.0469 129.148 38.5856 122.229 40C113.443 36.7975 120.242 28.245 125.578 25.7394C127.133 25.0094 129.023 24.4862 130.678 24Z" fill="#7CCF00"/>
<path d="M35.4467 130C45.523 130.606 45.587 137.849 52.7676 142.473C55.9185 144.288 59.6827 144.548 62.8468 146.383C68.2115 149.519 70.9055 155.422 67.4668 161.101C64.7202 165.636 61.1387 166.955 56.3532 168.207C32.9249 175.206 9.32122 133.677 35.4467 130Z" fill="#FE9A00"/>
<path d="M75.0577 111.049L76.7065 111C77.681 111.817 77.9698 112.384 77.9933 113.724C78.2628 129.25 70.4011 136.264 55.9101 138C54.6877 137.961 54.6267 137.978 53.5536 137.455C48.6635 129.674 56.1853 116.801 64.0673 113.746C68.5634 112.003 70.3517 111.46 75.0577 111.049Z" fill="#7CCF00"/>
<path d="M28.0011 111.179C39.2703 110.003 44.6631 114.581 46 126C35.988 125.74 27.8906 122.91 28.0011 111.179Z" fill="#7CCF00"/>
<path d="M125.554 1.44053C133.077 -0.225459 159.546 -0.461728 167.082 0.933692C170.54 1.57134 173.843 2.85384 176.824 4.71299C182.295 8.1613 187.616 15.3107 188.263 21.2657C189.327 31.0068 190.015 61.342 188.313 69.8536C187.331 74.6646 185.437 79.244 182.736 83.3448C176.993 92.1435 168.375 97.4975 158.169 99.4132C150.409 100.869 144.988 101.716 140.3 108.926C136.851 114.226 135.053 119.214 130.623 123.908C123.073 131.903 111.808 131.299 104.52 139.644C99.4656 145.429 99.5435 152.294 97.5484 159.219C93.1636 174.396 80.7273 185.892 65.2554 189.073C58.9904 190.402 30.3162 190.746 23.8687 189.512C19.958 188.755 16.2351 187.232 12.9146 185.031C7.04155 181.133 1.59533 173.517 0.965384 166.908C0.0260528 157.048 -0.504916 128.388 1.17925 120.062C2.18649 115.117 4.15811 110.419 6.98296 106.237C12.3897 98.2533 21.4488 92.6941 30.855 91.0665C46.4566 88.3675 58.0755 93.839 72.3062 84.1515C64.4797 80.7955 56.7386 80.5616 49.2671 76.9942C36.348 70.8253 31.9515 62.9854 27.2076 50.2999C25.9663 46.132 25.1123 42.5357 24.5826 39.0265C24.5214 38.621 24.4663 38.2165 24.4136 37.8126C23.8001 33.1083 23.7577 28.4607 24.1314 22.6896C25.4545 23.0024 26.775 23.2901 28.0933 23.5616C29.4119 23.8332 30.7283 24.0885 32.0435 24.3351C39.9347 25.8145 47.7787 26.99 55.731 29.6192C67.2404 34.1482 73.5672 39.0097 78.9234 50.7071C80.2493 53.6027 81.7963 59.2582 81.8638 62.3604C82.3734 65.0752 83.0372 70.9468 83.2193 73.8565C91.4016 60.9 88.4206 54.4486 90.3882 40.38C93.0256 21.4854 106.772 5.59937 125.554 1.44053ZM80.6539 90.422C74.4028 95.1908 68.4388 98.0512 60.5591 99.5567C45.3564 102.461 30.5792 95.819 18.1578 108.358C6.88917 119.733 11.1041 135.951 10.2447 150.373C9.79887 157.851 9.8106 166.708 14.6265 172.694C21.8743 181.934 33.7163 179.831 44.0132 180.061C56.3039 180.139 67.3177 180.764 77.3541 172.455C90.9058 161.233 89.3792 146.635 90.0855 130.98C90.3194 119.519 87.8374 99.7952 80.6539 90.422ZM164.852 10.6114C160.15 9.60875 136.141 9.95695 130.801 10.5294C116.032 11.6216 101.686 26.7491 100.36 41.3995C98.7867 58.7884 100.084 68.6697 88.5904 83.6446C94.1127 95.1106 95.1907 99.0999 98.1812 111.593L101.245 107.838C109.881 97.4848 122.444 91.2057 135.906 90.5157C149.523 89.7176 161.894 92.7448 172.521 80.0978C183.611 66.8995 177.814 43.0272 179.039 26.7901C179.364 22.4231 175.493 16.6306 172.14 13.9962C169.998 12.3271 167.508 11.1692 164.852 10.6114Z" fill="#7CCF00"/>
<path d="M26.7553 0.210844C48.3889 -0.300406 70.246 0.302544 91.8995 0.120046C98.1115 0.067779 104.82 0.0361385 111 0.460724C106.048 3.86805 103.179 6.10844 98.6541 10.1027L50.3068 10.0738C33.3733 10.039 10.4848 5.86635 10.1161 30.1734L10.0613 94.296C5.80027 97.8625 2.83314 101.217 0.0834615 106C-0.151051 88.8611 0.208988 71.4108 0.0977109 54.2086C0.519809 43.7583 -0.768111 32.8155 0.815471 22.4743C2.90302 8.84356 13.8778 1.2847 26.7553 0.210844Z" fill="#7CCF00"/>
<path d="M188.243 85C189.146 86.4759 189.394 160.712 188.133 166.941C186.697 174.341 182.35 180.851 176.064 185.004C172.322 187.449 168.08 189.022 163.655 189.606C159.175 190.195 151.907 189.956 147.157 189.931L122.487 189.897L95.3957 189.958C91.9337 189.963 82.9966 190.137 80 189.513C85.7892 185.907 87.5225 184.674 92.1905 179.749C112.958 180.541 134.244 179.441 155.044 179.944C182.286 180.603 178.929 159.589 178.911 140.657L178.801 95.8699C182.951 91.8553 185.01 89.7693 188.243 85Z" fill="#7CCF00"/>
<path d="M167.375 133L167.883 133.569C169.017 142.911 161.715 156.847 154.412 162.191C140.905 172.07 126.914 168.932 111.715 166.686C118.496 158.433 124.833 156.207 134.792 154.111C137.673 153.52 140.741 152.515 143.58 151.664C130.123 150.779 120.677 151.331 110 160.605C122.771 122.923 146.799 147.213 167.375 133Z" fill="#7CCF00"/>
<path d="M158.843 112.007C164.986 111.879 169.617 113.352 165.336 120.376C162.076 125.728 157.615 128.618 151.698 129.994C147.182 130.028 146.083 130 142 127.935C143.917 118.374 149.398 113.435 158.843 112.007Z" fill="#FE9A00"/>
</svg>
