<svg width="236" height="36" viewBox="0 0 236 36" fill="none" xmlns="http://www.w3.org/2000/svg">
<path d="M211.307 10.9329H218.631L223.629 18.5384L228.676 10.9329H236L227.29 23.2301L236 35.6262H228.676L223.629 27.9712L218.631 35.6262H211.307L219.967 23.2301L211.307 10.9329Z" fill="#FAFBF8"/>
<path d="M195.3 36.0032C192.894 36.0032 190.752 35.4916 188.874 34.4684C186.996 33.4123 185.513 31.9435 184.425 30.0622C183.371 28.1479 182.844 25.9035 182.844 23.3291C182.844 20.7216 183.387 18.4607 184.475 16.5464C185.595 14.6321 187.111 13.1633 189.022 12.1402C190.934 11.084 193.076 10.5559 195.448 10.5559C197.821 10.5559 199.963 11.084 201.874 12.1402C203.785 13.1633 205.301 14.6321 206.422 16.5464C207.542 18.4277 208.102 20.6556 208.102 23.23C208.102 25.8375 207.526 28.0984 206.372 30.0127C205.252 31.927 203.719 33.4123 201.775 34.4684C199.864 35.4916 197.705 36.0032 195.3 36.0032ZM195.25 30.3097C196.272 30.3097 197.244 30.0622 198.167 29.5671C199.09 29.039 199.847 28.2634 200.441 27.2402C201.034 26.184 201.33 24.8473 201.33 23.23C201.33 21.6788 201.05 20.3916 200.49 19.3684C199.93 18.3122 199.188 17.5366 198.266 17.0415C197.376 16.5134 196.404 16.2494 195.349 16.2494C194.328 16.2494 193.372 16.5134 192.482 17.0415C191.626 17.5366 190.934 18.3122 190.406 19.3684C189.912 20.3916 189.665 21.7118 189.665 23.3291C189.665 24.8803 189.912 26.184 190.406 27.2402C190.901 28.2634 191.576 29.039 192.433 29.5671C193.29 30.0622 194.229 30.3097 195.25 30.3097Z" fill="#FAFBF8"/>
<path d="M160.288 14.6093C161.046 13.4868 162.116 12.5293 163.499 11.7369C164.914 10.9446 166.577 10.5484 168.487 10.5484C170.66 10.5484 172.553 11.0766 174.166 12.1331C175.812 13.1566 177.096 14.6258 178.018 16.5407C178.973 18.4556 179.45 20.7006 179.45 23.2758C179.45 25.851 178.973 28.096 178.018 30.0109C177.096 31.8928 175.812 33.362 174.166 34.4185C172.52 35.4749 170.627 36.0032 168.487 36.0032C166.774 36.0032 165.26 35.673 163.943 35.0127C162.626 34.3194 161.605 33.5105 160.881 32.5861L160.486 35.6565H154.757V0H161.079V14.7083L160.288 14.6093ZM172.635 23.2758C172.635 21.1958 172.092 19.5286 171.005 18.274C169.952 16.9864 168.569 16.3426 166.857 16.3426C165.803 16.3426 164.832 16.6232 163.943 17.1845C163.087 17.7127 162.396 18.4886 161.869 19.512C161.342 20.5355 161.079 21.7901 161.079 23.2758C161.079 24.7615 161.342 26.0161 161.869 27.0395C162.396 28.063 163.087 28.8554 163.943 29.4166C164.832 29.9449 165.803 30.209 166.857 30.209C168.569 30.209 169.952 29.5817 171.005 28.3271C172.092 27.0395 172.635 25.3558 172.635 23.2758Z" fill="#FAFBF8"/>
<path d="M141.465 10.8858H147.83V35.6262H141.465V10.8858ZM144.697 7.71901C143.504 7.71901 142.526 7.35615 141.764 6.63043C141.001 5.87172 140.62 4.94808 140.62 3.8595C140.62 2.77093 141.001 1.86378 141.764 1.13806C142.526 0.379353 143.504 0 144.697 0C145.825 0 146.769 0.379353 147.532 1.13806C148.327 1.86378 148.725 2.77093 148.725 3.8595C148.725 4.94808 148.327 5.87172 147.532 6.63043C146.769 7.35615 145.825 7.71901 144.697 7.71901Z" fill="#FAFBF8"/>
<path d="M121.77 10.9549H127.567L128.016 14.1128C128.716 13.2576 129.499 12.5668 130.365 12.0404C131.265 11.4812 132.247 11.1029 133.313 10.9056C134.379 10.6753 135.495 10.6918 136.661 10.9549V16.876C135.762 16.58 134.812 16.4977 133.813 16.6293C132.847 16.7609 131.931 17.1063 131.065 17.6655C130.232 18.2247 129.532 19.0306 128.966 20.0833C128.433 21.103 128.166 22.4024 128.166 23.9813V35.6262H121.77V10.9549Z" fill="#FAFBF8"/>
<path d="M105.463 10.9038V3.9585H111.846V10.9038H117.246V16.5096H111.846V26.5803C111.846 27.8702 112.107 28.7797 112.631 29.3088C113.187 29.838 113.875 30.1191 114.693 30.1522C115.544 30.1853 116.395 30.1356 117.246 30.0034V35.4604C115.74 35.7911 114.268 35.8903 112.827 35.758C111.42 35.6257 110.16 35.2454 109.047 34.617C107.934 33.9556 107.051 32.9634 106.396 31.6405C105.774 30.3175 105.463 28.6308 105.463 26.5803V16.5096H101.978V10.9038H105.463Z" fill="#FAFBF8"/>
<path d="M97.6422 35.657H91.8567L91.4116 33.0857C90.6204 34.0087 89.6479 34.734 88.4941 35.2614C87.3733 35.7559 86.17 36.0031 84.8843 36.0031C82.9723 36.0031 81.324 35.5911 79.9394 34.7669C78.5548 33.9428 77.4834 32.756 76.7252 31.2067C75.967 29.6243 75.5879 27.6794 75.5879 25.3718V10.9329H81.9668V24.5806C81.9668 26.4596 82.3295 27.8936 83.0547 28.8826C83.8129 29.8386 84.9667 30.3166 86.5161 30.3166C88.0326 30.3166 89.2029 29.8221 90.027 28.8331C90.8842 27.8442 91.3127 26.4102 91.3127 24.5311V10.9329H97.6422V35.657Z" fill="#FAFBF8"/>
<path d="M69.3673 0.942383V35.6261H62.5384L47.396 11.5457V35.6261H40.7156V0.942383H47.495L62.6869 25.0228V0.942383H69.3673Z" fill="#FAFBF8"/>
<path d="M29.3736 4.54114C29.4674 4.5336 29.5612 4.52828 29.655 4.5252C31.6119 4.4683 31.1526 6.32791 31.211 7.45056C31.2499 8.20585 31.6757 8.92575 31.6677 9.83084C31.642 11.1926 31.0588 12.4887 30.0454 13.4338C28.7231 14.6856 27.3397 14.9173 25.5961 14.8892L25.528 14.7811C26.6352 13.6375 27.3459 12.4584 26.8423 10.771C26.5201 9.69073 25.6935 9.10365 24.6934 8.61487C25.7094 6.78286 26.3458 7.05022 27.8769 5.90271C28.4558 5.46893 28.4363 5.06729 29.3736 4.54114Z" fill="#FAFBF8"/>
<path d="M22.97 9.45122C24.0973 9.32218 25.2469 9.65129 25.7729 10.7624C26.0578 11.3792 26.0903 12.0855 25.8636 12.7266C25.388 14.0595 24.046 14.6638 22.881 15.2123C19.2253 16.9505 20.4031 13.0185 21.1506 11.1306C21.4988 10.2493 22.124 9.76403 22.97 9.45122Z" fill="#FAFBF8"/>
<path d="M24.6325 4.52393L24.8713 4.54758C25.1752 4.7233 25.2964 4.95389 25.2485 5.27983C25.0504 6.60625 24.344 7.27329 23.0398 7.5399C21.3837 6.93624 22.6653 5.3241 23.6711 4.8518C23.9641 4.7142 24.3205 4.61557 24.6325 4.52393Z" fill="#FAFBF8"/>
<path d="M6.6816 24.5049C8.58099 24.6191 8.59303 25.9843 9.94658 26.8561C10.5405 27.1981 11.2501 27.2472 11.8465 27.5931C12.8577 28.1842 13.3655 29.297 12.7173 30.3673C12.1996 31.2222 11.5245 31.4708 10.6225 31.7068C6.20626 33.0261 1.757 25.198 6.6816 24.5049Z" fill="#FAFBF8"/>
<path d="M14.1483 20.9325L14.4591 20.9233C14.6428 21.0774 14.6973 21.1842 14.7017 21.4367C14.7525 24.3635 13.2706 25.6857 10.5391 26.0128C10.3086 26.0055 10.2971 26.0087 10.0949 25.9101C9.17308 24.4433 10.5909 22.0168 12.0767 21.4409C12.9242 21.1124 13.2613 21.01 14.1483 20.9325Z" fill="#FAFBF8"/>
<path d="M5.27817 20.9571C7.40238 20.7353 8.41891 21.5984 8.67093 23.7508C6.78368 23.7019 5.25732 23.1683 5.27817 20.9571Z" fill="#FAFBF8"/>
<path d="M23.6667 0.271573C25.0849 -0.0424305 30.0743 -0.0871313 31.4949 0.17587C32.1466 0.296091 32.7699 0.538384 33.3318 0.888761C34.3629 1.53899 35.3662 2.88668 35.488 4.00888C35.6886 5.8458 35.8175 11.5626 35.4968 13.1671C35.3118 14.0736 34.955 14.9373 34.446 15.71C33.3637 17.3684 31.7386 18.3782 29.8152 18.7393C28.3524 19.0138 27.3306 19.1734 26.447 20.5323C25.797 21.5312 25.4578 22.4718 24.6228 23.3565C23.1998 24.8635 21.0757 24.7495 19.7019 26.3224C18.7493 27.4128 18.7645 28.7075 18.3884 30.0128C17.5618 32.8734 15.2167 35.0401 12.3005 35.6397C11.1192 35.8901 5.71603 35.9552 4.49976 35.7227C3.76274 35.5801 3.06015 35.2927 2.43433 34.878C1.32753 34.1432 0.301334 32.7074 0.182373 31.462C0.00534122 29.6037 -0.094845 24.2026 0.222412 22.6319C0.412256 21.6999 0.784722 20.8136 1.31714 20.0255C2.33628 18.5208 4.04335 17.4729 5.81616 17.1661C8.75689 16.6574 10.9473 17.6883 13.6296 15.8624C12.1546 15.23 10.695 15.1859 9.28687 14.5138C6.85185 13.351 6.0228 11.8724 5.12866 9.48153C4.76878 8.27312 4.58106 7.3191 4.52319 6.28817C4.48834 5.6695 4.50027 5.02262 4.54858 4.27646C6.54398 4.74821 8.50719 4.92236 10.5056 5.5831C12.6748 6.43676 13.8681 7.35388 14.8777 9.55868C15.1275 10.1048 15.4187 11.1706 15.4314 11.755C15.5274 12.267 15.6529 13.3737 15.6873 13.922C17.2295 11.4799 16.6681 10.263 17.0388 7.61142C17.5361 4.05004 20.1266 1.05558 23.6667 0.271573ZM15.2039 17.045C14.0257 17.9439 12.9009 18.4829 11.4158 18.7667C8.55008 19.3141 5.76404 18.0614 3.42261 20.4249C1.29851 22.5693 2.09342 25.6272 1.9314 28.3458C1.84742 29.7552 1.84995 31.4247 2.75757 32.5528C4.12381 34.2939 6.35588 33.8983 8.29663 33.9415C10.6133 33.9563 12.69 34.0741 14.5818 32.5079C17.1361 30.3926 16.8481 27.6405 16.9812 24.6895C17.0253 22.5295 16.5574 18.8122 15.2039 17.045ZM31.075 2.00009C30.1889 1.81109 25.6632 1.87657 24.656 1.98446C21.8721 2.19035 19.1676 5.04222 18.9177 7.8038C18.6213 11.0813 18.8654 12.9441 16.699 15.7667C17.7397 17.9275 17.9439 18.6805 18.5076 21.0352L19.0847 20.3272C20.7126 18.3758 23.0806 17.1917 25.6179 17.0616C28.1846 16.9112 30.5172 17.4823 32.5203 15.0987C34.6107 12.611 33.5181 8.11057 33.7488 5.04989C33.8101 4.22693 33.0799 3.13551 32.448 2.63876C32.0445 2.32429 31.5752 2.10529 31.075 2.00009Z" fill="#FAFBF8"/>
<path d="M5.04332 0.0397437C9.12123 -0.056626 13.2413 0.057029 17.3229 0.0226285C18.4939 0.0127762 19.7584 0.00681205 20.9233 0.0868458C19.9898 0.729122 19.449 1.15143 18.5961 1.90434L9.48275 1.8989C6.29082 1.89233 1.97637 1.1058 1.90686 5.68764L1.89655 17.7747C1.09334 18.4469 0.534043 19.0792 0.0157324 19.9808C-0.0284729 16.7502 0.0393938 13.4608 0.0184183 10.2182C0.0979832 8.24837 -0.144788 6.18567 0.153715 4.23637C0.547214 1.667 2.61594 0.242164 5.04332 0.0397437Z" fill="#FAFBF8"/>
<path d="M35.4835 16.0225C35.6538 16.3007 35.7005 30.294 35.4628 31.4681C35.1922 32.8631 34.3728 34.0903 33.1878 34.873C32.4825 35.334 31.6829 35.6304 30.8488 35.7406C30.0044 35.8515 28.6343 35.8065 27.7389 35.8018L23.0886 35.7955L17.982 35.8068C17.3294 35.8078 15.6448 35.8406 15.08 35.723C16.1712 35.0432 16.4979 34.8108 17.3778 33.8825C21.2925 34.0319 25.3048 33.8245 29.2256 33.9193C34.3607 34.0435 33.728 30.0824 33.7245 26.5138L33.7038 18.0714C34.486 17.3147 34.8741 16.9215 35.4835 16.0225Z" fill="#FAFBF8"/>
<path d="M31.5499 25.0703L31.6456 25.1776C31.8593 26.9385 30.4829 29.5655 29.1064 30.5727C26.5604 32.435 23.9229 31.8434 21.058 31.4201C22.3362 29.8643 23.5308 29.4447 25.408 29.0497C25.951 28.9384 26.5293 28.7489 27.0646 28.5885C24.528 28.4216 22.7473 28.5257 20.7347 30.2737C23.142 23.1709 27.6713 27.7495 31.5499 25.0703Z" fill="#FAFBF8"/>
<path d="M29.9415 21.1132C31.0995 21.0891 31.9723 21.3666 31.1654 22.6908C30.5508 23.6995 29.7101 24.2443 28.5946 24.5036C27.7434 24.51 27.5363 24.5048 26.7666 24.1156C27.128 22.3133 28.1612 21.3824 29.9415 21.1132Z" fill="#FAFBF8"/>
</svg>
