<svg width="190" height="245" viewBox="0 0 190 245" fill="none" xmlns="http://www.w3.org/2000/svg">
<path d="M165.101 220.581H172.189L177.027 227.942L181.912 220.581H189L180.571 232.483L189 244.48H181.912L177.027 237.071L172.189 244.48H165.101L173.483 232.483L165.101 220.581Z" fill="#FE9A00"/>
<path d="M149.61 244.845C147.281 244.845 145.208 244.35 143.39 243.359C141.573 242.337 140.137 240.916 139.085 239.095C138.064 237.242 137.554 235.07 137.554 232.578C137.554 230.055 138.08 227.867 139.133 226.014C140.217 224.161 141.684 222.74 143.534 221.75C145.384 220.727 147.457 220.216 149.753 220.216C152.049 220.216 154.122 220.727 155.972 221.75C157.822 222.74 159.289 224.161 160.373 226.014C161.458 227.835 162 229.991 162 232.483C162 235.006 161.442 237.194 160.326 239.047C159.241 240.9 157.758 242.337 155.877 243.359C154.027 244.35 151.938 244.845 149.61 244.845ZM149.562 239.334C150.55 239.334 151.491 239.095 152.384 238.616C153.277 238.105 154.011 237.354 154.585 236.364C155.159 235.342 155.446 234.048 155.446 232.483C155.446 230.981 155.175 229.735 154.633 228.745C154.091 227.723 153.373 226.972 152.48 226.493C151.619 225.982 150.678 225.727 149.657 225.727C148.669 225.727 147.744 225.982 146.883 226.493C146.054 226.972 145.384 227.723 144.874 228.745C144.395 229.735 144.156 231.013 144.156 232.578C144.156 234.08 144.395 235.342 144.874 236.364C145.352 237.354 146.006 238.105 146.835 238.616C147.664 239.095 148.573 239.334 149.562 239.334Z" fill="#FE9A00"/>
<path d="M115.725 224.139C116.458 223.053 117.493 222.126 118.832 221.359C120.202 220.592 121.811 220.209 123.659 220.209C125.762 220.209 127.595 220.72 129.156 221.743C130.749 222.733 131.992 224.155 132.884 226.008C133.808 227.862 134.27 230.034 134.27 232.527C134.27 235.019 133.808 237.192 132.884 239.045C131.992 240.866 130.749 242.288 129.156 243.311C127.563 244.333 125.73 244.845 123.659 244.845C122.002 244.845 120.536 244.525 119.262 243.886C117.987 243.215 116.999 242.432 116.298 241.537L115.916 244.509H110.372V210H116.49V224.235L115.725 224.139ZM127.674 232.527C127.674 230.514 127.148 228.9 126.097 227.686C125.077 226.44 123.739 225.817 122.082 225.817C121.062 225.817 120.122 226.088 119.262 226.631C118.433 227.143 117.764 227.894 117.254 228.884C116.745 229.875 116.49 231.089 116.49 232.527C116.49 233.965 116.745 235.179 117.254 236.169C117.764 237.16 118.433 237.927 119.262 238.47C120.122 238.981 121.062 239.237 122.082 239.237C123.739 239.237 125.077 238.63 126.097 237.416C127.148 236.169 127.674 234.54 127.674 232.527Z" fill="#FE9A00"/>
<path d="M97.5074 220.535H103.668V244.48H97.5074V220.535ZM100.636 217.471C99.4805 217.471 98.5341 217.119 97.7961 216.417C97.0582 215.683 96.6892 214.789 96.6892 213.735C96.6892 212.682 97.0582 211.804 97.7961 211.101C98.5341 210.367 99.4805 210 100.636 210C101.726 210 102.641 210.367 103.379 211.101C104.149 211.804 104.534 212.682 104.534 213.735C104.534 214.789 104.149 215.683 103.379 216.417C102.641 217.119 101.726 217.471 100.636 217.471Z" fill="#7CCF00"/>
<path d="M78.4459 220.602H84.056L84.4913 223.659C85.1684 222.831 85.9261 222.162 86.7643 221.653C87.6349 221.112 88.586 220.746 89.6178 220.555C90.6495 220.332 91.7296 220.348 92.8581 220.602V226.333C91.9876 226.046 91.0686 225.967 90.1014 226.094C89.1664 226.222 88.2797 226.556 87.4414 227.097C86.6354 227.638 85.9583 228.418 85.4102 229.437C84.8943 230.424 84.6364 231.682 84.6364 233.21V244.48H78.4459V220.602Z" fill="#7CCF00"/>
<path d="M62.6641 220.553V213.831H68.841V220.553H74.0676V225.978H68.841V235.725C68.841 236.973 69.0944 237.853 69.6012 238.366C70.1397 238.878 70.8049 239.15 71.5968 239.182C72.4204 239.214 73.244 239.166 74.0676 239.038V244.319C72.6104 244.639 71.185 244.735 69.7912 244.607C68.4292 244.479 67.2096 244.111 66.1326 243.503C65.0556 242.863 64.2004 241.903 63.5668 240.622C62.965 239.342 62.6641 237.709 62.6641 235.725V225.978H59.2905V220.553H62.6641Z" fill="#7CCF00"/>
<path d="M55.0946 244.51H49.4952L49.0645 242.021C48.2988 242.914 47.3576 243.616 46.2409 244.127C45.1561 244.605 43.9916 244.845 42.7473 244.845C40.8968 244.845 39.3015 244.446 37.9615 243.648C36.6215 242.851 35.5846 241.702 34.8507 240.202C34.1169 238.671 33.75 236.789 33.75 234.555V220.581H39.9237V233.79C39.9237 235.608 40.2746 236.996 40.9765 237.953C41.7104 238.878 42.827 239.341 44.3266 239.341C45.7942 239.341 46.9269 238.862 47.7245 237.905C48.554 236.948 48.9688 235.56 48.9688 233.742V220.581H55.0946V244.51Z" fill="#7CCF00"/>
<path d="M27.7297 210.912V244.48H21.1206L6.46548 221.174V244.48H0V210.912H6.56127L21.2643 234.218V210.912H27.7297Z" fill="#7CCF00"/>
<path d="M155.829 24.0913C156.327 24.0513 156.824 24.0231 157.322 24.0068C167.704 23.7049 165.267 33.5703 165.577 39.5261C165.783 43.5329 168.042 47.3521 167.999 52.1536C167.863 59.3777 164.769 66.2536 159.393 71.2675C152.378 77.9083 145.039 79.1376 135.789 78.9885L135.428 78.4152C141.302 72.3485 145.072 66.0932 142.4 57.1411C140.691 51.4103 136.306 48.2958 131 45.7028C136.39 35.9838 139.766 37.4022 147.889 31.3146C150.96 29.0133 150.857 26.8826 155.829 24.0913Z" fill="#FE9A00"/>
<path d="M121.857 50.1401C127.838 49.4556 133.936 51.2015 136.727 57.0963C138.238 60.3683 138.411 64.115 137.208 67.5162C134.685 74.5874 127.566 77.7936 121.385 80.703C101.991 89.9245 108.24 69.0648 112.206 59.0492C114.052 54.3741 117.369 51.7996 121.857 50.1401Z" fill="#FE9A00"/>
<path d="M130.678 24L131.945 24.1255C133.557 25.0577 134.2 26.281 133.946 28.0102C132.895 35.0469 129.148 38.5856 122.229 40C113.443 36.7975 120.242 28.245 125.578 25.7394C127.133 25.0094 129.023 24.4862 130.678 24Z" fill="#7CCF00"/>
<path d="M35.4467 130C45.523 130.606 45.587 137.849 52.7676 142.473C55.9185 144.288 59.6827 144.548 62.8468 146.383C68.2115 149.519 70.9055 155.422 67.4668 161.101C64.7202 165.636 61.1387 166.955 56.3532 168.207C32.9249 175.206 9.32122 133.677 35.4467 130Z" fill="#FE9A00"/>
<path d="M75.0577 111.049L76.7065 111C77.681 111.817 77.9698 112.384 77.9933 113.724C78.2628 129.25 70.4011 136.264 55.9101 138C54.6877 137.961 54.6267 137.978 53.5536 137.455C48.6635 129.674 56.1853 116.801 64.0673 113.746C68.5634 112.003 70.3517 111.46 75.0577 111.049Z" fill="#7CCF00"/>
<path d="M28.0011 111.179C39.2703 110.003 44.6631 114.581 46 126C35.988 125.74 27.8906 122.91 28.0011 111.179Z" fill="#7CCF00"/>
<path d="M125.554 1.44113C133.076 -0.224911 159.546 -0.462121 167.082 0.933316C170.54 1.57096 173.842 2.85364 176.823 4.71261C182.295 8.16092 187.616 15.3112 188.263 21.2663C189.327 31.0077 190.015 61.3416 188.313 69.8532C187.332 74.6643 185.437 79.2435 182.735 83.3444C176.993 92.1431 168.375 97.4971 158.17 99.4128C150.409 100.869 144.987 101.716 140.3 108.926C136.851 114.226 135.052 119.214 130.622 123.908C123.072 131.903 111.808 131.299 104.519 139.644C99.4652 145.429 99.5429 152.294 97.5478 159.218C93.163 174.396 80.7277 185.892 65.2558 189.073C58.9915 190.402 30.3167 190.745 23.8691 189.511C19.9581 188.755 16.2347 187.232 12.914 185.031C7.04089 181.132 1.59454 173.516 0.964794 166.908C0.0254543 157.047 -0.505548 128.388 1.17866 120.061C2.18588 115.116 4.15859 110.419 6.98335 106.238C12.3901 98.2539 21.4492 92.6937 30.8554 91.0661C46.4569 88.3673 58.0759 93.8388 72.3066 84.1511C64.48 80.7951 56.7381 80.5622 49.2666 76.9948C36.3474 70.8259 31.9519 62.9852 27.208 50.2995C27.2077 50.2985 27.2073 50.2976 27.207 50.2966V50.2995C26.2523 47.0938 25.5269 44.2262 25.0019 41.4763C24.8969 40.9263 24.8001 40.3809 24.7109 39.8386C24.354 37.6692 24.1212 35.547 23.998 33.3591C23.9672 32.812 23.9431 32.2609 23.9257 31.7038C23.8388 28.9191 23.9172 25.9876 24.1308 22.6892H24.1318C31.4099 24.4101 38.6041 25.3832 45.8349 26.9626C47.1498 27.2498 48.466 27.5569 49.7841 27.8923C50.7725 28.1438 51.762 28.4113 52.7529 28.698C53.3537 28.8718 53.9546 29.0541 54.5566 29.2429C54.9474 29.3654 55.3391 29.4905 55.7304 29.6198C67.2399 34.1488 73.5666 39.0093 78.9228 50.7068C80.2487 53.6021 81.7966 59.2576 81.8642 62.3601C82.3737 65.0747 83.0376 70.9463 83.2197 73.8562C91.4017 60.8998 88.421 54.4481 90.3886 40.3796C93.0261 21.4853 106.772 5.60008 125.554 1.44113ZM80.6542 90.4226C74.4033 95.1914 68.439 98.0508 60.5595 99.5564C45.3568 102.461 30.5796 95.8189 18.1582 108.357C6.88928 119.733 11.1046 135.951 10.2451 150.374C9.79927 157.851 9.81104 166.708 14.6269 172.694C21.8747 181.934 33.7166 179.831 44.0136 180.06C56.3042 180.139 67.3181 180.764 77.3544 172.455C90.906 161.232 89.3786 146.635 90.0849 130.979C90.3188 119.518 87.8377 99.7958 80.6542 90.4226ZM164.852 10.6111C160.151 9.60829 136.14 9.95752 130.801 10.53C116.032 11.6224 101.685 26.749 100.359 41.3991C98.7861 58.7881 100.084 68.6701 88.5898 83.6452C94.112 95.111 95.1902 99.0997 98.1806 111.592L101.245 107.839C109.882 97.4853 122.445 91.2053 135.906 90.5153C149.524 89.7173 161.894 92.7453 172.521 80.0984C183.612 66.9002 177.815 43.0278 179.039 26.7907C179.365 22.4238 175.493 16.6314 172.141 13.9968C169.999 12.3276 167.508 11.1689 164.852 10.6111Z" fill="#7CCF00"/>
<path d="M26.7553 0.210844C48.3889 -0.300406 70.246 0.302544 91.8995 0.120046C98.1115 0.067779 104.82 0.0361385 111 0.460724C106.048 3.86805 103.179 6.10844 98.6541 10.1027L50.3068 10.0738C33.3733 10.039 10.4848 5.86635 10.1161 30.1734L10.0613 94.296C5.80027 97.8625 2.83314 101.217 0.0834615 106C-0.151051 88.8611 0.208988 71.4108 0.0977109 54.2086C0.519809 43.7583 -0.768111 32.8155 0.815471 22.4743C2.90302 8.84356 13.8778 1.2847 26.7553 0.210844Z" fill="#7CCF00"/>
<path d="M188.243 85C189.146 86.4759 189.394 160.712 188.133 166.941C186.697 174.341 182.35 180.851 176.064 185.004C172.322 187.449 168.08 189.022 163.655 189.606C159.175 190.195 151.907 189.956 147.157 189.931L122.487 189.897L95.3957 189.958C91.9337 189.963 82.9966 190.137 80 189.513C85.7892 185.907 87.5225 184.674 92.1905 179.749C112.958 180.541 134.244 179.441 155.044 179.944C182.286 180.603 178.929 159.589 178.911 140.657L178.801 95.8699C182.951 91.8553 185.01 89.7693 188.243 85Z" fill="#7CCF00"/>
<path d="M167.375 133L167.883 133.569C169.017 142.911 161.715 156.847 154.412 162.191C140.905 172.07 126.914 168.932 111.715 166.686C118.496 158.433 124.833 156.207 134.792 154.111C137.673 153.52 140.741 152.515 143.58 151.664C130.123 150.779 120.677 151.331 110 160.605C122.771 122.923 146.799 147.213 167.375 133Z" fill="#7CCF00"/>
<path d="M158.843 112.007C164.986 111.879 169.617 113.352 165.336 120.376C162.076 125.728 157.615 128.618 151.698 129.994C147.182 130.028 146.083 130 142 127.935C143.917 118.374 149.398 113.435 158.843 112.007Z" fill="#FE9A00"/>
</svg>
