<svg width="1252" height="191" viewBox="0 0 1252 191" fill="none" xmlns="http://www.w3.org/2000/svg">
<path d="M1121 58H1159.85L1186.37 98.348L1213.15 58H1252L1205.8 123.238L1252 189H1213.15L1186.37 148.39L1159.85 189H1121L1166.94 123.238L1121 58Z" fill="#FE9A00"/>
<path d="M1036.08 191C1023.32 191 1011.96 188.286 1001.99 182.858C992.027 177.255 984.16 169.463 978.391 159.482C972.797 149.327 970 137.42 970 123.763C970 109.93 972.885 97.9358 978.654 87.7801C984.598 77.6245 992.639 69.8327 1002.78 64.4047C1012.92 58.8016 1024.28 56 1036.87 56C1049.46 56 1060.82 58.8016 1070.96 64.4047C1081.1 69.8327 1089.14 77.6245 1095.08 87.7801C1101.03 97.7607 1104 109.58 1104 123.237C1104 137.07 1100.94 149.064 1094.82 159.22C1088.88 169.375 1080.75 177.255 1070.43 182.858C1060.29 188.286 1048.84 191 1036.08 191ZM1035.82 160.796C1041.24 160.796 1046.4 159.482 1051.29 156.856C1056.19 154.054 1060.21 149.94 1063.35 144.512C1066.5 138.909 1068.07 131.817 1068.07 123.237C1068.07 115.008 1066.59 108.179 1063.62 102.751C1060.64 97.1479 1056.71 93.0331 1051.82 90.4066C1047.1 87.605 1041.94 86.2043 1036.34 86.2043C1030.92 86.2043 1025.86 87.605 1021.14 90.4066C1016.59 93.0331 1012.92 97.1479 1010.12 102.751C1007.5 108.179 1006.19 115.183 1006.19 123.763C1006.19 131.992 1007.5 138.909 1010.12 144.512C1012.74 149.94 1016.33 154.054 1020.87 156.856C1025.42 159.482 1030.4 160.796 1035.82 160.796Z" fill="#FE9A00"/>
<path d="M850.344 77.5034C854.361 71.5484 860.038 66.4691 867.374 62.2655C874.885 58.0619 883.705 55.9601 893.836 55.9601C905.364 55.9601 915.407 58.7625 923.966 64.3673C932.699 69.7969 939.511 77.591 944.402 87.7497C949.467 97.9083 952 109.818 952 123.48C952 137.142 949.467 149.052 944.402 159.21C939.511 169.194 932.699 176.988 923.966 182.593C915.233 188.198 905.189 191 893.836 191C884.753 191 876.719 189.249 869.732 185.746C862.745 182.067 857.331 177.776 853.488 172.872L851.392 189.161H821V0H854.536V78.0289L850.344 77.5034ZM915.844 123.48C915.844 112.446 912.962 103.601 907.198 96.945C901.609 90.1142 894.273 86.6988 885.19 86.6988C879.601 86.6988 874.448 88.1875 869.732 91.1651C865.191 93.9674 861.523 98.0835 858.728 103.513C855.933 108.943 854.536 115.598 854.536 123.48C854.536 131.362 855.933 138.017 858.728 143.447C861.523 148.877 865.191 153.08 869.732 156.058C874.448 158.86 879.601 160.261 885.19 160.261C894.273 160.261 901.609 156.934 907.198 150.278C912.962 143.447 915.844 134.514 915.844 123.48Z" fill="#FE9A00"/>
<path d="M750.485 57.75H784.252V189H750.485V57.75ZM767.632 40.95C761.301 40.95 756.112 39.025 752.067 35.175C748.022 31.15 746 26.25 746 20.475C746 14.7 748.022 9.8875 752.067 6.0375C756.112 2.0125 761.301 0 767.632 0C773.611 0 778.624 2.0125 782.669 6.0375C786.89 9.8875 789 14.7 789 20.475C789 26.25 786.89 31.15 782.669 35.175C778.624 39.025 773.611 40.95 767.632 40.95Z" fill="#7CCF00"/>
<path d="M646 58.1169H676.752L679.138 74.8699C682.849 70.3326 687.002 66.6679 691.597 63.8757C696.369 60.909 701.583 58.9022 707.238 57.8551C712.894 56.6335 718.814 56.7208 725 58.1169V89.5288C720.228 87.9582 715.191 87.522 709.889 88.22C704.764 88.918 699.904 90.7504 695.309 93.7171C690.89 96.6838 687.179 100.959 684.174 106.544C681.347 111.953 679.933 118.847 679.933 127.223V189H646V58.1169Z" fill="#7CCF00"/>
<path d="M559.492 57.8454V21H593.35V57.8454H622V87.5849H593.35V141.011C593.35 147.853 594.74 152.678 597.518 155.486C600.469 158.293 604.116 159.784 608.457 159.96C612.971 160.135 617.486 159.872 622 159.17V188.12C614.013 189.875 606.199 190.401 598.559 189.699C591.093 188.997 584.408 186.98 578.505 183.646C572.601 180.137 567.913 174.873 564.441 167.855C561.141 160.837 559.492 151.889 559.492 141.011V87.5849H541V57.8454H559.492Z" fill="#7CCF00"/>
<path d="M518 189.164H487.307L484.946 175.523C480.749 180.419 475.59 184.267 469.469 187.065C463.522 189.688 457.139 191 450.318 191C440.175 191 431.43 188.814 424.085 184.442C416.74 180.07 411.056 173.774 407.034 165.554C403.011 157.16 401 146.842 401 134.6V58H434.841V130.402C434.841 140.371 436.765 147.978 440.612 153.225C444.635 158.297 450.756 160.832 458.975 160.832C467.02 160.832 473.229 158.209 477.601 152.963C482.148 147.716 484.422 140.108 484.422 130.14V58H518V189.164Z" fill="#7CCF00"/>
<path d="M368 5V189H331.772L251.44 61.2514V189H216V5H251.965L332.56 132.749V5H368Z" fill="#7CCF00"/>
<path d="M155.829 24.0913C156.327 24.0513 156.824 24.0231 157.322 24.0068C167.704 23.7049 165.267 33.5703 165.577 39.5261C165.783 43.5329 168.042 47.3521 167.999 52.1536C167.863 59.3777 164.769 66.2536 159.393 71.2675C152.378 77.9083 145.039 79.1376 135.789 78.9885L135.428 78.4152C141.302 72.3485 145.072 66.0932 142.4 57.1411C140.691 51.4103 136.306 48.2958 131 45.7028C136.39 35.9838 139.766 37.4022 147.889 31.3146C150.96 29.0133 150.857 26.8826 155.829 24.0913Z" fill="#FE9A00"/>
<path d="M121.857 50.1401C127.838 49.4556 133.936 51.2015 136.727 57.0963C138.238 60.3683 138.411 64.115 137.208 67.5162C134.685 74.5874 127.566 77.7936 121.385 80.703C101.991 89.9245 108.24 69.0648 112.206 59.0492C114.052 54.3741 117.369 51.7996 121.857 50.1401Z" fill="#FE9A00"/>
<path d="M130.678 24L131.945 24.1255C133.557 25.0577 134.2 26.281 133.946 28.0102C132.895 35.0469 129.148 38.5856 122.229 40C113.443 36.7975 120.242 28.245 125.578 25.7394C127.133 25.0094 129.023 24.4862 130.678 24Z" fill="#7CCF00"/>
<path d="M35.4467 130C45.523 130.606 45.587 137.849 52.7676 142.473C55.9185 144.288 59.6827 144.548 62.8468 146.383C68.2115 149.519 70.9055 155.422 67.4668 161.101C64.7202 165.636 61.1387 166.955 56.3532 168.207C32.9249 175.206 9.32122 133.677 35.4467 130Z" fill="#FE9A00"/>
<path d="M75.0577 111.049L76.7065 111C77.681 111.817 77.9698 112.384 77.9933 113.724C78.2628 129.25 70.4011 136.264 55.9101 138C54.6877 137.961 54.6267 137.978 53.5536 137.455C48.6635 129.674 56.1853 116.801 64.0673 113.746C68.5634 112.003 70.3517 111.46 75.0577 111.049Z" fill="#7CCF00"/>
<path d="M28.0011 111.179C39.2703 110.003 44.6631 114.581 46 126C35.988 125.74 27.8906 122.91 28.0011 111.179Z" fill="#7CCF00"/>
<path d="M125.554 1.44145C133.076 -0.224559 159.545 -0.461715 167.081 0.933637C170.539 1.57128 173.842 2.85381 176.823 4.71293C182.295 8.16116 187.616 15.3106 188.263 21.2657C189.327 31.0067 190.015 61.3419 188.314 69.8536C187.332 74.6645 185.437 79.2439 182.735 83.3448C176.993 92.1433 168.375 97.4974 158.17 99.4131C150.409 100.869 144.987 101.715 140.3 108.926C136.851 114.226 135.053 119.214 130.622 123.908C123.073 131.903 111.808 131.3 104.52 139.645C99.4654 145.429 99.5429 152.294 97.5479 159.219C93.1631 174.396 80.7277 185.892 65.2559 189.073C58.9916 190.402 30.3171 190.746 23.8692 189.512C19.9582 188.755 16.2348 187.232 12.9141 185.031C7.04103 181.133 1.5948 173.517 0.964889 166.908C0.025562 157.048 -0.505398 128.388 1.17876 120.062C2.186 115.117 4.15857 110.419 6.98344 106.237C12.3902 98.2535 21.4486 92.6941 30.8545 91.0664C46.4563 88.3674 58.0758 93.8393 72.3067 84.1514C64.4801 80.7954 56.7382 80.5616 49.2666 76.9942C36.3477 70.8253 31.9519 62.9853 27.2081 50.2998C27.2078 50.2989 27.2074 50.2979 27.2071 50.2969V50.2998C26.3385 47.3834 25.6602 44.7464 25.1495 42.2237C25.0988 41.9732 25.0494 41.724 25.002 41.4756C23.952 35.9758 23.7032 30.9468 24.0196 24.626L24.1309 22.6895H24.1319C26.2224 23.1838 28.3062 23.6156 30.3858 24.0186C31.9273 24.3173 33.4667 24.5987 35.0049 24.878C37.9594 25.4143 40.9095 25.9406 43.8643 26.5459C44.8494 26.7478 45.835 26.9585 46.8213 27.1817C49.7812 27.8515 52.7483 28.6332 55.7305 29.6192C67.2401 34.1482 73.5667 39.0095 78.9229 50.7071C80.2489 53.6026 81.7968 59.258 81.8643 62.3604C82.3738 65.0751 83.0367 70.9467 83.2188 73.8565C91.4011 60.8999 88.4201 54.4485 90.3877 40.3799C93.0251 21.4855 106.772 5.60041 125.554 1.44145ZM80.6543 90.4229C74.4035 95.1916 68.439 98.0511 60.5596 99.5567C45.3569 102.461 30.5797 95.8191 18.1582 108.357C6.88949 119.733 11.1036 135.951 10.2442 150.373C9.79837 157.851 9.81101 166.708 14.627 172.694C21.8748 181.934 33.7168 179.831 44.0137 180.061C56.3043 180.139 67.3182 180.764 77.3545 172.455C90.9061 161.233 89.3787 146.635 90.085 130.98C90.3189 119.519 87.8377 99.7962 80.6543 90.4229ZM164.853 10.6114C160.151 9.60861 136.14 9.95686 130.801 10.5293C116.032 11.6217 101.685 26.7491 100.359 41.3995C98.7862 58.7884 100.084 68.6696 88.5899 83.6446C94.1122 95.1105 95.1902 99.0998 98.1807 111.593L101.245 107.838C109.882 97.4849 122.445 91.2056 135.906 90.5157C149.524 89.7176 161.894 92.7447 172.522 80.0977C183.611 66.8994 177.815 43.027 179.039 26.7901C179.364 22.4231 175.493 16.6306 172.141 13.9961C169.999 12.3269 167.508 11.1692 164.853 10.6114Z" fill="#7CCF00"/>
<path d="M26.7553 0.210844C48.3889 -0.300406 70.246 0.302544 91.8995 0.120046C98.1115 0.067779 104.82 0.0361385 111 0.460724C106.048 3.86805 103.179 6.10844 98.6541 10.1027L50.3068 10.0738C33.3733 10.039 10.4848 5.86635 10.1161 30.1734L10.0613 94.296C5.80027 97.8625 2.83314 101.217 0.0834615 106C-0.151051 88.8611 0.208988 71.4108 0.0977109 54.2086C0.519809 43.7583 -0.768111 32.8155 0.815471 22.4743C2.90302 8.84356 13.8778 1.2847 26.7553 0.210844Z" fill="#7CCF00"/>
<path d="M188.243 85C189.146 86.4759 189.394 160.712 188.133 166.941C186.697 174.341 182.35 180.851 176.064 185.004C172.322 187.449 168.08 189.022 163.655 189.606C159.175 190.195 151.907 189.956 147.157 189.931L122.487 189.897L95.3957 189.958C91.9337 189.963 82.9966 190.137 80 189.513C85.7892 185.907 87.5225 184.674 92.1905 179.749C112.958 180.541 134.244 179.441 155.044 179.944C182.286 180.603 178.929 159.589 178.911 140.657L178.801 95.8699C182.951 91.8553 185.01 89.7693 188.243 85Z" fill="#7CCF00"/>
<path d="M167.375 133L167.883 133.569C169.017 142.911 161.715 156.847 154.412 162.191C140.905 172.07 126.914 168.932 111.715 166.686C118.496 158.433 124.833 156.207 134.792 154.111C137.673 153.52 140.741 152.515 143.58 151.664C130.123 150.779 120.677 151.331 110 160.605C122.771 122.923 146.799 147.213 167.375 133Z" fill="#7CCF00"/>
<path d="M158.843 112.007C164.986 111.879 169.617 113.352 165.336 120.376C162.076 125.728 157.615 128.618 151.698 129.994C147.182 130.028 146.083 130 142 127.935C143.917 118.374 149.398 113.435 158.843 112.007Z" fill="#FE9A00"/>
</svg>
